<?xml version="1.0" encoding="utf-8"?>
<!-- Generator: Adobe Illustrator 21.1.0, SVG Export Plug-In . SVG Version: 6.00 Build 0)  -->
<svg version="1.1" id="Слой_2" xmlns="http://www.w3.org/2000/svg" xmlns:xlink="http://www.w3.org/1999/xlink" x="0px" y="0px"
	 viewBox="0 0 1333.3 1333.3" style="enable-background:new 0 0 1333.3 1333.3;" xml:space="preserve">
<style type="text/css">
	.st0{fill:#E55B2E;}
	.st1{fill:#F5B400;}
</style>
<g id="Слой_3">
</g>
<g>
	<path class="st0" d="M661.9,1288c53.5,0.4,107.4-6.1,160.4-19.9l-117-451c-13.5,3.5-27.2,5.2-40.8,5L661.9,1288z"/>
	<path class="st0" d="M531,743.6c-0.1-0.1-0.1-0.2-0.2-0.4L126,973.8c0.1,0.2,0.2,0.3,0.3,0.5c27.4,48.1,60.3,91.1,97.4,128.8
		l331.7-327.2C546.1,766.4,537.9,755.7,531,743.6"/>
	<path class="st0" d="M800.1,745.2l401.6,236.4c27.6-47,48.8-97.4,63.2-149.6L815.8,708.2C812.2,721.1,806.9,733.6,800.1,745.2"/>
	<path class="st0" d="M531.8,588.3L130,352.4c-27.5,47.1-48.7,97.4-63,149.7l449.3,123.3C519.8,612.4,525.1,600,531.8,588.3"/>
	<path class="st0" d="M801.1,589.7c0,0.1,0.1,0.2,0.1,0.3l404.6-231c-27.5-48.3-60.5-91.4-97.8-129.1L776.6,557.4
		C785.9,566.9,794.2,577.6,801.1,589.7"/>
	<path class="st0" d="M669.6,45.3C616,45,562.1,51.6,509.1,65.4l117.5,450.9c13.4-3.5,27-5.2,40.5-5.1L669.6,45.3z"/>
	<path class="st1" d="M587.6,800.8l-236.1,401.7c47.1,27.6,97.4,48.7,149.6,63.1l123.5-449.2C611.7,812.9,599.3,807.6,587.6,800.8"
		/>
	<path class="st1" d="M743,801.7c-0.2,0.1-0.3,0.2-0.5,0.2l230.3,405c0.3-0.2,0.6-0.3,0.8-0.5c48-27.3,90.9-60.1,128.4-97.1
		l-327-331.9C765.7,786.7,755,794.9,743,801.7"/>
	<path class="st1" d="M510.7,665.4l-465.9-2.6c-0.4,53.6,6.2,107.5,20,160.5L515.7,706C512.2,692.6,510.5,679,510.7,665.4"/>
	<path class="st1" d="M821.5,668.4l465.9,2.5c0.4-53.9-6.2-108.2-20.2-161.6L816.4,627.2C820,640.8,821.6,654.7,821.5,668.4"/>
	<path class="st1" d="M589.4,531.5L358.6,126.8c0,0-0.1,0.1-0.2,0.1c-48.2,27.5-91.3,60.4-129,97.6l327.4,331.6
		c9.4-9.3,20.2-17.6,32.3-24.5C589.2,531.6,589.3,531.5,589.4,531.5"/>
	<path class="st1" d="M744.4,532.4l235.8-401.9c-47.1-27.5-97.5-48.7-149.8-63l-123,449.3C720.2,520.4,732.7,525.6,744.4,532.4"/>
</g>
</svg>
