<?xml version="1.0" encoding="UTF-8"?><svg id="button" xmlns="http://www.w3.org/2000/svg" viewBox="0 0 450 450"><defs><style>.cls-1,.cls-2,.cls-3,.cls-4{fill:none;stroke-linecap:round;stroke-miterlimit:10;}.cls-1,.cls-2,.cls-4{stroke:#000;}.cls-1,.cls-3{stroke-width:34px;}.cls-5{stroke-width:0px;}.cls-2{stroke-width:44px;}.cls-3{stroke:#ffb67d;}.cls-4{stroke-width:30px;}</style></defs><g id="main"><path class="cls-5" d="m79.220001220703125,89.858388385297985h150.679985046386719v258.819992065428778H79.220001220703125c-34.340003967285156,0-62.220001220703125-27.8800048828125-62.220001220703125-62.220001220703125v-134.380004882811591c0-34.339996337890625,27.879997253417969-62.220001220703125,62.220001220703125-62.220001220703125v.000015258789062Z"/><path class="cls-5" d="m33.830001831054688,241.258382281781451l211.930000305175781,183.639999389648438c18.839996337890625,16.329986572265625,48.149993896484375,2.94000244140625,48.149993896484375-21.989990234375V35.628385028364391c0-24.930000305175781-29.29998779296875-38.310001373291016-48.149993896484375-21.989999771118164L33.830001831054688,197.288381061079235c-13.389999389648438,11.600006103515625-13.389999389648438,32.369995117186591,0,43.970001220702216Z"/></g><g id="waves"><path class="cls-4" d="m329.490013122558594,120.165584878361187c46.410003662109375,57.919998168945312,46.410003662109375,140.289993286132812,0,198.220016479492188"/><path class="cls-1" d="m372.059989929199219,76.725582436954937c66.739990234375,83.30999755859375,66.739990234375,201.780014038085938,0,285.090011596679688"/></g><g id="muted"><line class="cls-2" x1="44.748725166563418" y1="22" x2="417.402450798033897" y2="394.653732609656799"/><line class="cls-3" x1="17" y1="49.326443948151791" x2="389.653732609656799" y2="421.980169579621361"/></g></svg>
